<svg width="198" height="77" viewBox="0 0 198 77" fill="none" xmlns="http://www.w3.org/2000/svg">
<g clip-path="url(#clip0)">
<path d="M69 0H0V71H69V0Z" fill="url(#paint0_linear)"/>
<path d="M34.5 0C38.3837 0 41.6957 2.50542 42.8786 5.97749C48.6154 7.45707 53.8791 10.436 58.1966 14.7366C59.7343 16.2754 59.7343 18.7808 58.1966 20.3195C57.4277 21.0889 56.4223 21.4835 55.4169 21.4835C54.4114 21.4835 53.406 21.0889 52.6371 20.3195C49.5814 17.2617 45.8751 15.072 41.8337 13.8686C40.2369 16.2162 37.536 17.7549 34.5 17.7549C31.464 17.7549 28.7631 16.2162 27.1663 13.8883C23.1249 15.0917 19.4383 17.2815 16.3629 20.3393C14.8251 21.878 12.3214 21.878 10.7837 20.3393C9.246 18.8005 9.246 16.2951 10.7837 14.7563C15.0814 10.4557 20.3451 7.45707 26.1017 5.99722C27.3043 2.50542 30.6163 0 34.5 0H0V71H26.8509C26.5157 71 26.1806 70.9605 25.8257 70.8619C19.8917 69.2837 14.6871 66.147 10.6063 61.9647C6.97886 62.6749 3.15429 61.077 1.20257 57.7035C-0.749143 54.3301 -0.216857 50.1873 2.208 47.4254C1.39971 44.5452 0.985714 41.5465 0.985714 38.469C0.985714 35.5296 1.36029 32.6099 2.12914 29.7888C2.70086 27.678 4.84971 26.4351 6.95914 26.9875C9.06857 27.5596 10.3106 29.7099 9.75857 31.8208C9.16714 33.9908 8.87143 36.2201 8.87143 38.469C8.87143 40.501 9.108 42.4935 9.58114 44.4268C12.4003 44.6438 15.042 46.2023 16.56 48.8458C18.078 51.4696 18.0977 54.5668 16.8754 57.1117C19.8917 59.9919 23.6374 62.1423 27.8563 63.2667C29.9657 63.8388 31.2077 65.9892 30.6557 68.1C30.1826 69.8558 28.5857 71.0197 26.8509 71.0197H42.1491C40.4143 71.0197 38.8174 69.8558 38.3443 68.1C37.7726 65.9892 39.0343 63.8388 41.1437 63.2667C45.3626 62.1423 49.1083 59.9722 52.1246 57.1117C50.9023 54.5668 50.922 51.4893 52.44 48.8458C53.958 46.222 56.6194 44.6635 59.4189 44.4268C59.8723 42.5132 60.1089 40.5207 60.1089 38.4888C60.1089 36.2398 59.8131 34.0106 59.2414 31.8405C58.6697 29.7296 59.9314 27.5793 62.0409 27.0072C64.1503 26.4548 66.2991 27.6977 66.8709 29.8086C67.62 32.6296 68.0143 35.5493 68.0143 38.4888C68.0143 41.5663 67.6003 44.5649 66.792 47.4254C69.2169 50.207 69.7491 54.3301 67.7974 57.7035C65.8457 61.077 62.0211 62.6946 58.3937 61.9647C54.2931 66.147 49.0886 69.2837 43.1546 70.8619C42.8194 70.9605 42.4646 71 42.1294 71H69V0H34.5Z" fill="white"/>
<path d="M34.5 51.292C27.4422 51.292 21.6857 45.5315 21.6857 38.469C21.6857 31.4065 27.4422 25.646 34.5 25.646C37.9302 25.646 41.1437 26.9875 43.5685 29.3943C44.7317 30.5582 44.7317 32.4323 43.5685 33.5765C42.4054 34.7405 40.5325 34.7405 39.3891 33.5765C38.088 32.2745 36.3531 31.5446 34.5197 31.5446C30.7148 31.5446 27.6197 34.6418 27.6197 38.4493C27.6197 42.2567 30.7148 45.354 34.5197 45.354C36.3531 45.354 38.088 44.6438 39.3891 43.322C40.5522 42.1581 42.4251 42.1581 43.5685 43.322C44.7317 44.486 44.7317 46.3601 43.5685 47.5043C41.1437 49.9505 37.9302 51.292 34.5 51.292Z" fill="#5A4FCF"/>
</g>
<path d="M89.3145 46.2051C87.9277 46.2051 86.7233 45.9186 85.7012 45.3457C84.6855 44.7663 83.8978 43.9492 83.3379 42.8945C82.7845 41.8333 82.5078 40.5801 82.5078 39.1348V38.6562C82.5078 37.276 82.7747 36.0553 83.3086 34.9941C83.849 33.9264 84.6139 33.0898 85.6035 32.4844C86.5996 31.8789 87.7878 31.5762 89.168 31.5762C90.125 31.5762 91.0267 31.7129 91.873 31.9863C92.7194 32.2598 93.4746 32.6764 94.1387 33.2363V36.6738H92.0195L91.7266 34.5156C91.401 34.2878 91.0332 34.1087 90.623 33.9785C90.2129 33.8418 89.7507 33.7734 89.2363 33.7734C88.0319 33.7734 87.0846 34.2129 86.3945 35.0918C85.7044 35.9642 85.3594 37.1458 85.3594 38.6367V39.1348C85.3594 40.6322 85.7174 41.8203 86.4336 42.6992C87.1497 43.5781 88.1263 44.0176 89.3633 44.0176C89.7734 44.0176 90.1836 43.972 90.5938 43.8809C91.0104 43.7832 91.388 43.6595 91.7266 43.5098L92.0195 41.5078H94.1387V44.9062C93.5853 45.2708 92.8952 45.5801 92.0684 45.834C91.2415 46.0814 90.3236 46.2051 89.3145 46.2051ZM102.971 46.2051C101.688 46.2051 100.565 45.8958 99.6016 45.2773C98.638 44.6523 97.8861 43.7962 97.3457 42.709C96.8118 41.6217 96.5449 40.3848 96.5449 38.998V38.7832C96.5449 37.403 96.8118 36.1693 97.3457 35.082C97.8861 33.9948 98.6348 33.1387 99.5918 32.5137C100.555 31.8887 101.678 31.5762 102.961 31.5762C104.243 31.5762 105.37 31.8887 106.34 32.5137C107.316 33.1387 108.075 33.9948 108.615 35.082C109.162 36.1693 109.436 37.403 109.436 38.7832V38.998C109.436 40.3848 109.165 41.6217 108.625 42.709C108.085 43.7962 107.326 44.6523 106.35 45.2773C105.38 45.8958 104.253 46.2051 102.971 46.2051ZM102.971 43.9883C104.175 43.9883 105.08 43.5326 105.686 42.6211C106.291 41.7031 106.594 40.4954 106.594 38.998V38.7637C106.594 37.7806 106.457 36.918 106.184 36.1758C105.91 35.4271 105.503 34.8444 104.963 34.4277C104.429 34.0111 103.762 33.8027 102.961 33.8027C101.763 33.8027 100.868 34.2585 100.275 35.1699C99.6895 36.0814 99.3965 37.2793 99.3965 38.7637V38.998C99.3965 40.4954 99.6927 41.7031 100.285 42.6211C100.884 43.5326 101.779 43.9883 102.971 43.9883ZM116.988 46L112.418 33.6562L111.148 33.5V31.7812H116.803V33.5L115.523 33.6953L118.316 42.084L118.531 42.8652H118.59L118.795 42.1035L121.588 33.6953L120.094 33.5V31.7812H125.484V33.5L124.195 33.6562L119.908 46H116.988ZM125.068 46V44.291L126.084 44.1445L130.605 31.7812H133.525L138.018 44.1445L139.033 44.291V46H134.189V44.291L135.176 44.1152L134.551 42.1621H129.551L128.926 44.1152L129.912 44.291V46H125.068ZM130.225 40.0625H133.877L132.217 35.1895L132.08 34.7598H132.021L131.875 35.2188L130.225 40.0625ZM140.98 46V44.291L142.494 43.998V33.793L140.98 33.5V31.7812H147.064V33.5L145.346 33.793V43.8125H149.359L149.496 41.7324H151.674V46H140.98ZM153.699 46V44.291L155.213 43.998V33.793L153.699 33.5V31.7812H164.734V35.6191H162.547L162.42 33.9785H158.064V37.5527H162.879V39.75H158.064V43.8125H162.654L162.781 42.1133H164.949V46H153.699ZM167.473 46V44.291L168.986 43.998V33.793L167.473 33.5V31.7812H171.877L178.068 41.6445L178.127 41.6348V33.793L176.311 33.5V31.7812H182.199V33.5L180.676 33.793V46H177.922L171.594 36.2344L171.535 36.2441V43.998L173.361 44.291V46H167.473ZM187.408 46V44.291L188.932 43.998V33.9785H186.344L186.188 35.6777H184.029V31.7812H196.715V35.6777H194.547L194.391 33.9785H191.783V43.998L193.316 44.291V46H187.408Z" fill="#5A4FCF"/>
<defs>
<linearGradient id="paint0_linear" x1="0" y1="35.5019" x2="69" y2="35.5019" gradientUnits="userSpaceOnUse">
<stop stop-color="#48BFE3"/>
<stop offset="1" stop-color="#80FFDB"/>
</linearGradient>
<clipPath id="clip0">
<rect width="69" height="71" fill="white"/>
</clipPath>
</defs>
</svg>
