<?xml version="1.0" encoding="utf-8"?>
<!-- Generator: Adobe Illustrator 22.1.0, SVG Export Plug-In . SVG Version: 6.00 Build 0)  -->
<svg version="1.1" xmlns="http://www.w3.org/2000/svg" xmlns:xlink="http://www.w3.org/1999/xlink" x="0px" y="0px"
	 viewBox="0 0 350 359.9" style="enable-background:new 0 0 350 359.9;" xml:space="preserve">
<style type="text/css">
	.st0{fill:#FFFFFF;}
	.st1{display:none;fill:none;stroke:#000000;stroke-width:40;stroke-linecap:round;stroke-miterlimit:10;}
	.st2{display:none;}
	.st3{fill:url(#SVGID_1_);}
	.st4{fill:url(#SVGID_2_);}
	.st5{fill:url(#SVGID_3_);}
	.st6{fill:#5A4FCF;}
</style>
<g id="Layer_2">
</g>
<g id="Layer_1">
	<path class="st0" d="M175,0c19.7,0,36.5,12.7,42.5,30.3c29.1,7.5,55.8,22.6,77.7,44.4c7.8,7.8,7.8,20.5,0,28.3
		c-3.9,3.9-9,5.9-14.1,5.9s-10.2-2-14.1-5.9c-15.5-15.5-34.3-26.6-54.8-32.7C204.1,82.2,190.4,90,175,90s-29.1-7.8-37.2-19.6
		c-20.5,6.1-39.2,17.2-54.8,32.7c-7.8,7.8-20.5,7.8-28.3,0s-7.8-20.5,0-28.3c21.8-21.8,48.5-37,77.7-44.4C138.5,12.7,155.3,0,175,0
		H0v359.9h136.2c-1.7,0-3.4-0.2-5.2-0.7c-30.1-8-56.5-23.9-77.2-45.1c-18.4,3.6-37.8-4.5-47.7-21.6c-9.9-17.1-7.2-38.1,5.1-52.1
		C7.1,225.8,5,210.6,5,195c0-14.9,1.9-29.7,5.8-44c2.9-10.7,13.8-17,24.5-14.2c10.7,2.9,17,13.8,14.2,24.5
		C46.5,172.3,45,183.6,45,195c0,10.3,1.2,20.4,3.6,30.2c14.3,1.1,27.7,9,35.4,22.4c7.7,13.3,7.8,29,1.6,41.9
		c15.3,14.6,34.3,25.5,55.7,31.2c10.7,2.9,17,13.8,14.2,24.5c-2.4,8.9-10.5,14.8-19.3,14.8h77.6c-8.8,0-16.9-5.9-19.3-14.8
		c-2.9-10.7,3.5-21.6,14.2-24.5c21.4-5.7,40.4-16.7,55.7-31.2c-6.2-12.9-6.1-28.5,1.6-41.9c7.7-13.3,21.2-21.2,35.4-22.4
		c2.3-9.7,3.5-19.8,3.5-30.1c0-11.4-1.5-22.7-4.4-33.7c-2.9-10.7,3.5-21.6,14.2-24.5c10.7-2.8,21.6,3.5,24.5,14.2
		c3.8,14.3,5.8,29.1,5.8,44c0,15.6-2.1,30.8-6.2,45.3c12.3,14.1,15,35,5.1,52.1c-9.9,17.1-29.3,25.3-47.7,21.6
		c-20.8,21.2-47.2,37.1-77.3,45.1c-1.7,0.5-3.5,0.7-5.2,0.7H350V0H175z"/>
	<path class="st1" d="M281.1,88.9C253.9,61.8,216.4,45,175,45c-41.4,0-78.9,16.8-106.1,43.9"/>
	<path class="st1" d="M30.1,156.2C26.8,168.6,25,181.6,25,195c0,69.4,47.2,127.8,111.2,144.9"/>
	<path class="st1" d="M213.8,339.9C277.8,322.8,325,264.4,325,195c0-13.4-1.8-26.4-5.1-38.8"/>
	<circle class="st2" cx="175" cy="45" r="45"/>
	<circle class="st2" cx="45" cy="270" r="45"/>
	<circle class="st2" cx="305" cy="270" r="45"/>
</g>
<g id="Layer_3">
	<linearGradient id="SVGID_1_" gradientUnits="userSpaceOnUse" x1="48.9341" y1="54.467" x2="301.0662" y2="54.467">
		<stop  offset="0" style="stop-color:#50C8E2"/>
		<stop  offset="1" style="stop-color:#78F6DC"/>
	</linearGradient>
	<path class="st3" d="M132.5,30.3C103.3,37.8,76.6,53,54.8,74.8c-7.8,7.8-7.8,20.5,0,28.3s20.5,7.8,28.3,0
		c15.5-15.5,34.3-26.6,54.8-32.7C145.9,82.2,159.6,90,175,90s29.1-7.8,37.2-19.6c20.5,6.1,39.2,17.2,54.8,32.7
		c3.9,3.9,9,5.9,14.1,5.9s10.2-2,14.1-5.9c7.8-7.8,7.8-20.5,0-28.3c-21.8-21.8-48.5-37-77.7-44.4C211.5,12.7,194.7,0,175,0
		S138.5,12.7,132.5,30.3z"/>
	<linearGradient id="SVGID_2_" gradientUnits="userSpaceOnUse" x1="193.8254" y1="248.0426" x2="349.9958" y2="248.0426">
		<stop  offset="0" style="stop-color:#67E3DF"/>
		<stop  offset="1" style="stop-color:#80FFDB"/>
	</linearGradient>
	<path class="st4" d="M296.3,314.1c18.4,3.6,37.8-4.5,47.7-21.6c9.9-17.1,7.2-38.1-5.1-52.1c4-14.5,6.2-29.7,6.2-45.3
		c0-14.9-1.9-29.7-5.8-44c-2.9-10.7-13.8-17-24.5-14.2c-10.7,2.9-17,13.8-14.2,24.5c2.9,10.9,4.4,22.3,4.4,33.7
		c0,10.3-1.2,20.4-3.5,30.1c-14.3,1.1-27.7,9-35.4,22.4c-7.7,13.3-7.8,29-1.6,41.9c-15.3,14.6-34.3,25.5-55.7,31.2
		c-10.7,2.9-17,13.8-14.2,24.5c2.4,8.9,10.5,14.8,19.3,14.8h0c1.7,0,3.4-0.2,5.2-0.7C249.1,351.2,275.5,335.3,296.3,314.1z"/>
	<linearGradient id="SVGID_3_" gradientUnits="userSpaceOnUse" x1="4.176797e-03" y1="248.0424" x2="156.1754" y2="248.0424">
		<stop  offset="0" style="stop-color:#48BFE3"/>
		<stop  offset="1" style="stop-color:#61DBDF"/>
	</linearGradient>
	<path class="st5" d="M155.5,345.1c2.9-10.7-3.5-21.6-14.2-24.5c-21.4-5.7-40.4-16.7-55.7-31.2c6.1-12.9,6.1-28.5-1.6-41.9
		c-7.7-13.3-21.2-21.2-35.4-22.4c-2.3-9.7-3.6-19.8-3.6-30.2c0-11.4,1.5-22.7,4.4-33.7c2.9-10.7-3.5-21.6-14.2-24.5
		c-10.7-2.9-21.6,3.5-24.5,14.2C6.9,165.3,5,180.1,5,195c0,15.6,2.1,30.8,6.2,45.4c-12.4,14.1-15,35-5.1,52.1
		c9.9,17.1,29.3,25.3,47.7,21.6c20.8,21.2,47.2,37.1,77.2,45.1c1.7,0.5,3.5,0.7,5.2,0.7h0C145,359.9,153.1,354,155.5,345.1z"/>
	<path class="st6" d="M175,260c-35.8,0-65-29.2-65-65c0-35.8,29.2-65,65-65c17.4,0,33.7,6.8,46,19c5.9,5.9,5.9,15.4,0,21.2
		c-5.9,5.9-15.4,5.9-21.2,0c-6.6-6.6-15.4-10.3-24.7-10.3c-19.3,0-35,15.7-35,35s15.7,35,35,35c9.3,0,18.1-3.6,24.7-10.3
		c5.9-5.9,15.4-5.9,21.2,0c5.9,5.9,5.9,15.4,0,21.2C208.7,253.2,192.4,260,175,260z"/>
</g>
<g id="Layer_4">
	<rect x="-25" y="-25" class="st0" width="400" height="5"/>
	
		<text transform="matrix(1 0 0 1 11.5318 410.6063)" style="display:none;fill:#5A4FCF; font-family:'RobotoSlab-Bold'; font-size:36px; letter-spacing:14;">COVALENT</text>
</g>
</svg>
